<?xml version="1.0" encoding="utf-8"?>
<!-- Generator: Adobe Illustrator 18.0.0, SVG Export Plug-In . SVG Version: 6.00 Build 0)  -->
<!DOCTYPE svg PUBLIC "-//W3C//DTD SVG 1.1//EN" "http://www.w3.org/Graphics/SVG/1.1/DTD/svg11.dtd">
<svg version="1.1" id="Layer_1" xmlns="http://www.w3.org/2000/svg" xmlns:xlink="http://www.w3.org/1999/xlink" x="0px" y="0px"
	 viewBox="0 0 158 85" enable-background="new 0 0 158 85" xml:space="preserve">
<g>
	<path fill="#FFFFFF" d="M25.2,30.7h-4.6v8.2h4.6c3.1,0,4.6-1.4,4.6-4.1C29.8,32.1,28.3,30.7,25.2,30.7z"/>
	<path fill="#FFFFFF" d="M27.5,24.7c0.6-0.7,0.9-1.5,0.9-2.6c0-2.4-1.3-3.7-3.9-3.7h-3.8v7.3h3.8C25.8,25.7,26.8,25.4,27.5,24.7z"/>
	<path fill="#FFFFFF" d="M131.7,18.4h-2.6v20.5h2.6c3.3,0,5.6-0.8,6.9-2.3s2-4.2,2-8c0-3.7-0.7-6.3-2.1-7.8
		C137.1,19.2,134.8,18.4,131.7,18.4z"/>
	<path fill="#FFFFFF" d="M0.2,0v57.3H158V0H0.2z M25.4,43.9h-14v-5h3V18.4h-3v-5h14c6.2,0,9.3,2.7,9.3,8.2c0,1.5-0.4,2.7-1.1,3.9
		c-0.7,1.1-1.6,1.9-2.7,2.2c1.4,0.4,2.6,1.2,3.7,2.6c1.1,1.4,1.6,3,1.6,4.7C36.1,41,32.5,43.9,25.4,43.9z M68.6,18.4h-2.9v13.9
		c0,2.1-0.3,3.9-0.9,5.5c-0.6,1.6-1.4,2.8-2.4,3.7c-1.1,0.9-2.3,1.6-3.7,2.1c-1.4,0.5-3,0.7-4.7,0.7c-1.8,0-3.3-0.2-4.7-0.7
		c-1.4-0.5-2.6-1.2-3.7-2.1c-1-0.9-1.8-2.2-2.4-3.7c-0.6-1.6-0.8-3.4-0.8-5.5V18.4h-2.8v-5h12.7v5h-3.7v13.9c0,2.3,0.5,3.9,1.4,4.9
		c0.9,1,2.3,1.6,4.2,1.6c1.9,0,3.3-0.5,4.2-1.6c0.9-1.1,1.4-2.7,1.4-4.9V18.4H56v-5h12.7V18.4z M86.7,18.4h-3.3v20.5h3.3v5h-13v-5
		h3.5V18.4h-3.5v-5h13V18.4z M114.8,43.9H92.8v-5h3V18.4h-3v-5h12.4v5H102v20.5h7.1V33h5.8V43.9z M145.9,35.5
		c-0.5,1.9-1.5,3.4-2.7,4.7c-1.3,1.3-2.9,2.2-5,2.8c-2,0.6-4.6,0.9-7.6,0.9h-10.8v-5h3.1V18.4h-3.1v-5h10.8c3,0,5.5,0.3,7.6,0.8
		c2,0.6,3.7,1.5,5,2.7c1.3,1.3,2.2,2.8,2.7,4.7s0.8,4.2,0.8,6.9C146.8,31.4,146.5,33.7,145.9,35.5z"/>
	<g>
		<path fill="#FFFFFF" d="M8.7,81.6v3H0v-3h2.5V70H0.2v-2.9h8.3V70H6.2v11.6H8.7z"/>
		<path fill="#FFFFFF" d="M19.6,74.6v10h-3.7V67H17l9.8,10v-9.9h3.8v17.6h-1.1L19.6,74.6z"/>
		<path fill="#FFFFFF" d="M40.8,79.4c0.1,1.6,1.8,2.3,3.5,2.3c1.6,0,3.4-0.4,3.4-2.2c0-2-2.2-2.2-3.8-2.3c-3.2-0.3-6.4-1.4-6.4-5
			c0-3.9,3.2-5.5,6.7-5.5c3.3,0,6.7,1.4,6.7,5.3h-3.5c-0.2-1.4-1.7-2-3.2-2c-1.5,0-3,0.8-3,2.2c0,1.6,1.5,1.9,3.4,2.1
			c3.7,0.3,6.9,1.2,6.9,5.3c0,4.1-3.6,5.4-7,5.5c-3.5,0-7.1-1.7-7.1-5.6H40.8z"/>
		<path fill="#FFFFFF" d="M55.7,70.4v-3.3h13v3.3H64v14.3h-3.6V70.4H55.7z"/>
		<path fill="#FFFFFF" d="M83.5,81.6v3h-8.7v-3h2.5V70h-2.3v-2.9h8.3V70H81v11.6H83.5z"/>
		<path fill="#FFFFFF" d="M89,70.4v-3.3h13v3.3h-4.7v14.3h-3.6V70.4H89z"/>
		<path fill="#FFFFFF" d="M108.3,78.8V67.1h3.8v11.6c0,1.9,1.5,2.8,3.3,2.8c1.7,0,3.2-1,3.2-2.8V67.1h3.7v11.7
			c0,3.9-3.2,6.1-6.9,6.1S108.3,82.7,108.3,78.8z"/>
		<path fill="#FFFFFF" d="M128.1,70.4v-3.3h13v3.3h-4.7v14.3h-3.6V70.4H128.1z"/>
		<path fill="#FFFFFF" d="M157.8,70.4h-7v3.6h6.5v3.3h-6.5v4h7.2v3.4h-10.9V67.1h10.7V70.4z"/>
	</g>
</g>
</svg>
